<svg width="20" height="20" viewBox="0 0 20 20" fill="none" xmlns="http://www.w3.org/2000/svg">
<path d="M13.8641 3.04374C13.1063 3.04361 12.3787 3.34819 11.838 3.89193C11.2972 4.43567 10.9865 5.17511 10.9726 5.95114L10.9447 7.55955C10.9431 7.6459 10.9236 7.73093 10.8877 7.80905C10.8517 7.88717 10.8 7.95662 10.736 8.01284C10.6719 8.06906 10.597 8.11078 10.5162 8.13527C10.4353 8.15975 10.3503 8.16645 10.2667 8.15491L8.7103 7.93842C6.66235 7.65248 4.70013 6.68641 2.81769 5.08004C2.22145 8.46026 3.38601 10.8019 6.19074 12.6084L7.9326 13.7297C8.01536 13.783 8.08412 13.8562 8.13286 13.943C8.18159 14.0298 8.20882 14.1275 8.21217 14.2275C8.21551 14.3276 8.19487 14.427 8.15204 14.517C8.10922 14.607 8.04551 14.6848 7.9665 14.7438L6.37918 15.9315C7.3234 15.9917 8.21975 15.9488 8.96356 15.7977C13.6677 14.8357 16.7955 11.2104 16.7955 5.23016C16.7955 4.74202 15.7864 3.04374 13.8641 3.04374V3.04374ZM8.97851 5.91335C8.99592 4.92895 9.29646 3.97169 9.84252 3.16141C10.3886 2.35113 11.1559 1.72384 12.0484 1.35809C12.9409 0.992342 13.9188 0.90438 14.8599 1.10522C15.801 1.30606 16.6633 1.78677 17.3389 2.48718C18.0478 2.48207 18.651 2.66589 20 1.8285C19.666 3.50329 19.5015 4.23039 18.7896 5.23016C18.7896 13.0343 14.1064 16.8291 9.3544 17.8003C6.09602 18.4661 1.35799 17.3724 0 15.9202C0.691959 15.8651 3.50366 15.5556 5.12887 14.3373C3.75393 13.4091 -1.71893 10.1105 1.87746 1.24232C3.56548 3.26126 5.27743 4.63581 7.01231 5.36496C8.16691 5.85003 8.45007 5.83982 8.97951 5.91437L8.97851 5.91335Z" fill="#122947"/>
</svg>
