<svg width="18" height="21" viewBox="0 0 18 21" fill="none" xmlns="http://www.w3.org/2000/svg">
<path d="M1 21C1 18.8783 1.84285 16.8434 3.34315 15.3431C4.84344 13.8429 6.87827 13 9 13C11.1217 13 13.1566 13.8429 14.6569 15.3431C16.1571 16.8434 17 18.8783 17 21H15C15 19.4087 14.3679 17.8826 13.2426 16.7574C12.1174 15.6321 10.5913 15 9 15C7.4087 15 5.88258 15.6321 4.75736 16.7574C3.63214 17.8826 3 19.4087 3 21H1ZM9 12C5.685 12 3 9.315 3 6C3 2.685 5.685 0 9 0C12.315 0 15 2.685 15 6C15 9.315 12.315 12 9 12ZM9 10C11.21 10 13 8.21 13 6C13 3.79 11.21 2 9 2C6.79 2 5 3.79 5 6C5 8.21 6.79 10 9 10Z" fill="#122947"/>
</svg>
