<?xml version="1.0" encoding="utf-8"?><svg viewBox="0 0 30 22" xmlns="http://www.w3.org/2000/svg" xmlns:xlink="http://www.w3.org/1999/xlink"><style>:root>svg{display:none}:root>svg:target{display:block}</style><svg fill="none" viewBox="0 0 25 13" id="arrow-left" xmlns="http://www.w3.org/2000/svg"><path fill-rule="evenodd" clip-rule="evenodd" d="M6.475.637L.272 6.5l6.203 5.863.687-.726L2.257 7H25V6H2.257l4.905-4.637-.687-.726z" fill="#122947"/></svg><svg fill="none" viewBox="0 0 25 13" id="arrow-right" xmlns="http://www.w3.org/2000/svg"><path fill-rule="evenodd" clip-rule="evenodd" d="M18.525.637L24.728 6.5l-6.203 5.863-.687-.726L22.743 7H0V6h22.743l-4.905-4.637.687-.726z" fill="#122947"/></svg><svg fill="none" viewBox="0 0 18 21" id="buy" xmlns="http://www.w3.org/2000/svg"><path d="M4 7V5a5 5 0 1110 0v2h3a1 1 0 011 1v12a1 1 0 01-1 1H1a1 1 0 01-1-1V8a1 1 0 011-1h3zm0 2H2v10h14V9h-2v2h-2V9H6v2H4V9zm2-2h6V5a3 3 0 00-6 0v2z" fill="#122947"/></svg><svg fill="none" viewBox="0 0 14 14" id="copy" xmlns="http://www.w3.org/2000/svg"><path d="M7 0c3.864 0 7 3.136 7 7s-3.136 7-7 7-7-3.136-7-7 3.136-7 7-7zm0 1.4A5.598 5.598 0 001.4 7c0 3.094 2.506 5.6 5.6 5.6s5.6-2.506 5.6-5.6S10.094 1.4 7 1.4zm0 2.1c1.274 0 2.39.681 3.002 1.7l-1.2.72a2.1 2.1 0 100 2.16l1.2.72A3.499 3.499 0 013.5 7c0-1.932 1.568-3.5 3.5-3.5z" fill="#CDCDCD"/></svg><svg fill="none" viewBox="0 0 11 20" id="facebook" xmlns="http://www.w3.org/2000/svg"><path d="M6.286 8H11l-.524 2h-4.19v9H4.19v-9H0V8h4.19V6.128c0-1.783.195-2.43.56-3.082a3.726 3.726 0 011.584-1.512C7.017 1.186 7.694 1 9.563 1c.546 0 1.026.05 1.437.15V3H9.563c-1.387 0-1.81.078-2.24.298a1.668 1.668 0 00-.725.692c-.23.411-.312.814-.312 2.138V8z" fill="#122947"/></svg><svg fill="none" viewBox="0 0 30 1" id="hyphen" xmlns="http://www.w3.org/2000/svg"><path fill-rule="evenodd" clip-rule="evenodd" d="M30 1H0V0h30v1z" fill="#122947"/></svg><svg fill="none" viewBox="0 0 20 20" id="insta" xmlns="http://www.w3.org/2000/svg"><path d="M10 7a3 3 0 100 6 3 3 0 000-6zm0-2a5 5 0 110 10 5 5 0 010-10zm6.5-.25a1.25 1.25 0 11-2.5 0 1.25 1.25 0 012.5 0zM10 2c-2.474 0-2.878.007-4.029.058-.784.037-1.31.142-1.798.332a2.886 2.886 0 00-1.08.703 2.89 2.89 0 00-.704 1.08c-.19.49-.295 1.015-.331 1.798C2.006 7.075 2 7.461 2 10c0 2.474.007 2.878.058 4.029.037.783.142 1.31.331 1.797.17.435.37.748.702 1.08.337.336.65.537 1.08.703.494.191 1.02.297 1.8.333C7.075 17.994 7.461 18 10 18c2.474 0 2.878-.007 4.029-.058.782-.037 1.309-.142 1.797-.331a2.92 2.92 0 001.08-.702c.337-.337.538-.65.704-1.08.19-.493.296-1.02.332-1.8.052-1.104.058-1.49.058-4.029 0-2.474-.007-2.878-.058-4.029-.037-.782-.142-1.31-.332-1.798a2.91 2.91 0 00-.703-1.08 2.884 2.884 0 00-1.08-.704c-.49-.19-1.016-.295-1.798-.331C12.925 2.006 12.539 2 10 2zm0-2c2.717 0 3.056.01 4.122.06 1.065.05 1.79.217 2.428.465.66.254 1.216.598 1.772 1.153.509.5.902 1.105 1.153 1.772.247.637.415 1.363.465 2.428.047 1.066.06 1.405.06 4.122 0 2.717-.01 3.056-.06 4.122-.05 1.065-.218 1.79-.465 2.428a4.883 4.883 0 01-1.153 1.772c-.5.508-1.105.902-1.772 1.153-.637.247-1.363.415-2.428.465-1.066.047-1.405.06-4.122.06-2.717 0-3.056-.01-4.122-.06-1.065-.05-1.79-.218-2.428-.465a4.89 4.89 0 01-1.772-1.153A4.904 4.904 0 01.525 16.55C.277 15.913.11 15.187.06 14.122.013 13.056 0 12.717 0 10c0-2.717.01-3.056.06-4.122.05-1.066.217-1.79.465-2.428a4.88 4.88 0 011.153-1.772A4.897 4.897 0 013.45.525C4.088.277 4.812.11 5.878.06 6.944.013 7.283 0 10 0z" fill="#122947"/></svg><svg fill="none" viewBox="0 0 24 12" id="long-arrow" xmlns="http://www.w3.org/2000/svg"><path d="M0 6h23m0 0l-5.576-5M23 6l-5.576 5" stroke="#122947"/></svg><svg fill="none" viewBox="0 0 12 2" id="minus" xmlns="http://www.w3.org/2000/svg"><path d="M0 1h12" stroke="#122947"/></svg><svg fill="none" viewBox="0 0 16 22" id="place" xmlns="http://www.w3.org/2000/svg"><path d="M8 16.485l4.243-4.242a6 6 0 10-8.486 0L8 16.485zm5.657-2.828L8 19.314l-5.657-5.657a8 8 0 1111.314 0zM1 20h14v2H1v-2z" fill="#122947"/></svg><svg fill="none" viewBox="0 0 12 12" id="plus" xmlns="http://www.w3.org/2000/svg"><path fill-rule="evenodd" clip-rule="evenodd" d="M6.353 6.353V12h-1V6.353H0v-1h5.353V0h1v5.353H12v1H6.353z" fill="#122947"/></svg><svg fill="none" viewBox="0 0 16 16" id="radio" xmlns="http://www.w3.org/2000/svg"><circle cx="8" cy="8" r="7.5" stroke="#CDCDCD"/></svg><svg fill="none" viewBox="0 0 12 12" id="radio-checked" xmlns="http://www.w3.org/2000/svg"><circle cx="6" cy="6" r="6" fill="#122947"/></svg><svg fill="none" viewBox="0 0 7 9" id="ruble" xmlns="http://www.w3.org/2000/svg"><path d="M1.143 9V7.286H0v-.82h1.143V5.345H0v-.958h1.143V0h2.469c1.147 0 1.996.223 2.547.668C6.72 1.113 7 1.761 7 2.61c0 .857-.302 1.53-.906 2.017-.604.479-1.493.719-2.666.719H2.325v1.121h2.167v.82H2.325V9H1.143zm1.182-4.613h.932c.797 0 1.414-.126 1.852-.379.446-.252.67-.705.67-1.36 0-.572-.184-.997-.552-1.274-.368-.277-.941-.416-1.72-.416H2.325v3.429z" fill="#122947"/></svg><svg fill="none" viewBox="0 0 16 16" id="to-close" xmlns="http://www.w3.org/2000/svg"><path d="M1 1l7 7m7 7L8 8m0 0l7-7L1 15" stroke="#122947" stroke-width="2"/></svg><svg fill="none" viewBox="0 0 22 13" id="to-open" xmlns="http://www.w3.org/2000/svg"><path d="M0 1h22M0 6.5h22M0 12h22" stroke="#122947" stroke-width="2"/></svg><svg fill="none" viewBox="0 0 20 20" id="twitter" xmlns="http://www.w3.org/2000/svg"><path d="M13.864 3.044c-.758 0-1.485.304-2.026.848a2.997 2.997 0 00-.865 2.06l-.028 1.608a.626.626 0 01-.209.453.595.595 0 01-.47.142L8.71 7.938C6.662 7.652 4.7 6.686 2.818 5.08c-.597 3.38.568 5.722 3.373 7.528l1.742 1.122a.607.607 0 01.28.497.626.626 0 01-.246.517l-1.588 1.188c.944.06 1.84.017 2.585-.134 4.704-.962 7.832-4.588 7.832-10.568 0-.488-1.01-2.186-2.932-2.186zM8.98 5.914a5.087 5.087 0 01.864-2.753 4.908 4.908 0 012.205-1.803 4.778 4.778 0 012.812-.253c.941.201 1.803.682 2.479 1.382.709-.005 1.312.179 2.661-.659-.334 1.675-.498 2.402-1.21 3.402 0 7.804-4.684 11.6-9.436 12.57-3.258.666-7.996-.428-9.354-1.88.692-.055 3.504-.364 5.129-1.583-1.375-.928-6.848-4.226-3.252-13.095 1.688 2.02 3.4 3.394 5.135 4.123 1.155.485 1.438.475 1.968.55l-.001-.002z" fill="#122947"/></svg><svg fill="none" viewBox="0 0 18 21" id="user" xmlns="http://www.w3.org/2000/svg"><path d="M1 21a8 8 0 0116 0h-2a6 6 0 10-12 0H1zm8-9c-3.315 0-6-2.685-6-6s2.685-6 6-6 6 2.685 6 6-2.685 6-6 6zm0-2c2.21 0 4-1.79 4-4s-1.79-4-4-4-4 1.79-4 4 1.79 4 4 4z" fill="#122947"/></svg></svg>